<svg width="79" height="97" viewBox="0 0 79 97" fill="none" xmlns="http://www.w3.org/2000/svg">
<path d="M48.25 22.25V4.79376C48.5125 5.01251 48.775 5.27501 48.9938 5.49376L73.7562 30.2563C73.975 30.475 74.2375 30.7375 74.4562 31H57C54.6815 30.9931 52.4599 30.069 50.8205 28.4295C49.181 26.7901 48.2569 24.5685 48.25 22.25Z" fill="#491549"/>
<path d="M78.6125 39.75H57C52.3587 39.75 47.9075 37.9063 44.6256 34.6244C41.3437 31.3425 39.5 26.8913 39.5 22.25V0.6375C38.5473 0.463405 37.5809 0.37555 36.6125 0.375H13.25C9.76903 0.375 6.43064 1.75781 3.96922 4.21922C1.50781 6.68064 0.125 10.019 0.125 13.5V83.5C0.125 86.981 1.50781 90.3194 3.96922 92.7808C6.43064 95.2422 9.76903 96.625 13.25 96.625H65.75C69.231 96.625 72.5694 95.2422 75.0308 92.7808C77.4922 90.3194 78.875 86.981 78.875 83.5V42.6375C78.8745 41.6691 78.7866 40.7027 78.6125 39.75ZM17.625 57.25H35.125C36.2853 57.25 37.3981 57.7109 38.2186 58.5314C39.0391 59.3519 39.5 60.4647 39.5 61.625C39.5 62.7853 39.0391 63.8981 38.2186 64.7186C37.3981 65.5391 36.2853 66 35.125 66H17.625C16.4647 66 15.3519 65.5391 14.5314 64.7186C13.7109 63.8981 13.25 62.7853 13.25 61.625C13.25 60.4647 13.7109 59.3519 14.5314 58.5314C15.3519 57.7109 16.4647 57.25 17.625 57.25ZM61.375 83.5H17.625C16.4647 83.5 15.3519 83.0391 14.5314 82.2186C13.7109 81.3981 13.25 80.2853 13.25 79.125C13.25 77.9647 13.7109 76.8519 14.5314 76.0314C15.3519 75.2109 16.4647 74.75 17.625 74.75H61.375C62.5353 74.75 63.6481 75.2109 64.4686 76.0314C65.2891 76.8519 65.75 77.9647 65.75 79.125C65.75 80.2853 65.2891 81.3981 64.4686 82.2186C63.6481 83.0391 62.5353 83.5 61.375 83.5Z" fill="#491549"/>
</svg>
