<svg width="95" height="95" viewBox="0 0 95 95" fill="none" xmlns="http://www.w3.org/2000/svg">
<mask id="mask0_13_5" style="mask-type:alpha" maskUnits="userSpaceOnUse" x="0" y="0" width="95" height="95">
<path d="M81.4365 0.677002H13.8132C10.2998 0.677002 6.93035 2.07266 4.44606 4.55696C1.96176 7.04131 0.566086 10.4107 0.566086 13.9241V81.5477C0.566086 85.0612 1.96176 88.4306 4.44606 90.9147C6.93035 93.3988 10.2998 94.7947 13.8132 94.7947H81.4365C84.95 94.7947 88.3194 93.3988 90.8035 90.9147C93.2882 88.4306 94.6835 85.0612 94.6835 81.5477V13.9241C94.6835 10.4107 93.2882 7.04131 90.8035 4.55696C88.3194 2.07266 84.95 0.677002 81.4365 0.677002ZM31.9426 75.8771C31.9426 76.1124 31.7838 76.4653 31.472 76.9418C31.0014 77.2594 30.6426 77.4124 30.4073 77.4124H19.5249C19.2896 77.4124 18.9367 77.2594 18.4661 76.9418C18.1485 76.4712 17.9896 76.1182 17.9896 75.8771V37.677C17.9896 37.4417 18.1485 37.0888 18.4602 36.6182C18.9308 36.3005 19.2838 36.1417 19.5249 36.1417H30.4073C30.6426 36.1417 30.9955 36.3005 31.4661 36.6123C31.7838 37.0829 31.9426 37.4358 31.9426 37.677V75.8771ZM30.172 29.6358C29.4956 30.3275 28.6848 30.8732 27.7895 31.2395C26.8941 31.6057 25.9332 31.7847 24.9661 31.7652C22.9132 31.7652 21.1838 31.0594 19.7602 29.6358C19.0683 28.9597 18.5223 28.149 18.1561 27.2535C17.7898 26.3581 17.6111 25.3971 17.6308 24.43C17.6308 22.4594 18.3426 20.7652 19.7602 19.3476C20.4289 18.6379 21.2357 18.0724 22.1309 17.686C23.0262 17.2995 23.991 17.1001 24.9661 17.1001C25.9412 17.1001 26.906 17.2995 27.8012 17.686C28.6965 18.0724 29.5032 18.6379 30.172 19.3476C31.5838 20.7594 32.2955 22.4652 32.2955 24.43C32.2955 26.4829 31.5896 28.2182 30.172 29.6358ZM78.1835 75.8771C78.1818 76.0771 78.1394 76.2747 78.0582 76.4577C77.9777 76.6412 77.86 76.8059 77.7129 76.9418C77.5771 77.0882 77.4124 77.2059 77.2294 77.2871C77.0465 77.3677 76.8488 77.4106 76.6482 77.4124H65.5306C65.2953 77.4124 64.9424 77.2594 64.4718 76.9418C64.1541 76.4712 63.9953 76.1182 63.9953 75.8771V52.5829C63.9953 50.6064 63.6424 49.0711 62.9306 47.9653C62.06 47.0241 60.6424 46.5535 58.6718 46.5535C56.1485 46.5535 54.3367 47.2947 53.2308 48.7947C52.2073 50.2947 51.6955 52.4241 51.6955 55.183V75.8771C51.6936 76.0771 51.6509 76.2747 51.5701 76.4577C51.4891 76.6412 51.3717 76.8059 51.2249 76.9418C51.0881 77.0894 50.9225 77.2071 50.7384 77.2883C50.5543 77.3688 50.3555 77.4112 50.1544 77.4124H39.272C39.0367 77.4124 38.6837 77.2594 38.2131 76.9418C37.8955 76.4712 37.7426 76.1182 37.7426 75.8771V37.677C37.7426 37.4417 37.8955 37.0888 38.2131 36.6182C38.6837 36.3005 39.0367 36.1417 39.272 36.1417H49.8014C50.1191 36.1417 50.4308 36.2182 50.7426 36.377C50.9072 36.4594 51.0661 36.73 51.2191 37.2005V37.7947L51.3366 38.03V38.977C53.9425 36.4594 57.5308 35.1947 62.1012 35.1947C67.2247 35.1947 71.1659 36.4182 73.9247 38.8594C76.7659 41.4594 78.1835 45.2123 78.1835 50.0947V75.8771Z" fill="black"/>
</mask>
<g mask="url(#mask0_13_5)">
<rect x="-26" y="-86" width="161" height="231" fill="#491549"/>
</g>
</svg>
